# xmcd
#
# Track frame offsets:
#	150
#	11771
#	21951
#	34867
#	46175
#	57505
#	68889
#	80060
#	91907
#	102940
#	113502
#	124661
#	137918
#	150946
#	159818
#	169014
#	178791
#	189836
#	202523
#	214450
#	224385
#	236574
#	247880
#	259797
#	268524
#
# Disc length: 3726 seconds
#
# Revision: 0
# Processed by: cddbd v1.5.2PL0 Copyright (c) Steve Scherf et al.
# Submitted via: EasyCDDAExtractor 10.0.2.1
#
DISCID=4d0e8c19
DTITLE=Various Artist - 7 Wonders Of The World
DYEAR=1900
DGENRE=R&B
TTITLE0=Legends - Zoom, Zoom, Zoom
TTITLE1=Escorts - Gloria
TTITLE2=Escorts - Seven Wonders Of The World
TTITLE3=Escorts - Gaudeamus
TTITLE4=Escorts - As I Love You
TTITLE5=Escorts - Submarine Race Watching
TTITLE6=Escorts - Somewhere
TTITLE7=Escorts - One Hand, One Heart
TTITLE8=Escorts - I Can't Be Free
TTITLE9=Escorts (Goldie and The) - Something Has Changed Him
TTITLE10=Escorts (Goldie and The) - Back Home Again
TTITLE11=Escorts - Give Me Tomorrow
TTITLE12=Escorts - My Heart Cries For You
TTITLE13=Gingerbreads (Goldie and The) - Can't You Hear My Heart Beat
TTITLE14=Gingerbreads (Goldie and The) - Skinny Minnie
TTITLE15=Gingerbreads (Goldie and The) - Chew Chew Fee Fi Fum
TTITLE16=Gingerbreads (Goldie and The) - What Kind Of Man Are You
TTITLE17=Gingerbreads (Goldie and The) - That's Why I Love You
TTITLE18=Gingerbreads (Goldie and The) - Think About The Good Times
TTITLE19=Gingerbreads (Goldie and The) - Please Please
TTITLE20=Gingerbreads (Goldie and The) - Song Of The Moon
TTITLE21=Gingerbreads (Goldie and The) - Walking In Different Circles
TTITLE22=Gingerbreads (Goldie and The) - Take My Hand
TTITLE23=Gingerbreads (Goldie and The) - VIP
TTITLE24=Gingerbreads (Goldie and The) - Bye Bye Baby
EXTD=
EXTT0=
EXTT1=
EXTT2=
EXTT3=
EXTT4=
EXTT5=
EXTT6=
EXTT7=
EXTT8=
EXTT9=
EXTT10=
EXTT11=
EXTT12=
EXTT13=
EXTT14=
EXTT15=
EXTT16=
EXTT17=
EXTT18=
EXTT19=
EXTT20=
EXTT21=
EXTT22=
EXTT23=
EXTT24=
PLAYORDER=
